<?xml version="1.0" standalone="no"?>
<!DOCTYPE svg PUBLIC "-//W3C//DTD SVG 20010904//EN"
 "http://www.w3.org/TR/2001/REC-SVG-20010904/DTD/svg10.dtd">
<svg version="1.0" xmlns="http://www.w3.org/2000/svg"
 width="500.000000pt" height="500.000000pt" viewBox="0 0 500.000000 500.000000"
 preserveAspectRatio="xMidYMid meet">
<metadata>
Created by potrace 1.14, written by Peter Selinger 2001-2017
</metadata>
<g transform="translate(0.000000,500.000000) scale(0.100000,-0.100000)"
fill="#000000" stroke="none">
<path d="M3672 4355 c-166 -12 -304 -24 -306 -26 -2 -2 -212 -318 -466 -701
-254 -384 -466 -698 -471 -698 -5 0 -259 284 -565 630 -410 465 -561 630 -577
630 -33 0 -741 -50 -751 -53 -5 -2 327 -366 738 -811 l748 -807 -28 -42 c-15
-23 -306 -450 -646 -950 -340 -499 -621 -914 -624 -922 -4 -8 -2 -15 2 -15 53
-1 762 53 772 58 7 4 221 333 476 732 255 399 467 725 472 725 5 0 247 -284
539 -632 291 -347 542 -644 556 -660 l25 -29 403 27 c221 15 404 28 405 30 2
2 -342 390 -765 863 -423 472 -769 863 -769 868 0 6 278 405 618 887 341 482
624 886 631 899 12 22 11 22 -51 21 -35 -1 -199 -12 -366 -24z"/>
</g>
</svg>
