<svg xmlns="http://www.w3.org/2000/svg" xmlns:xlink="http://www.w3.org/1999/xlink" width="1900" zoomAndPan="magnify" viewBox="0 0 1425 809.999993" height="1080" preserveAspectRatio="xMidYMid meet" version="1.0"><defs><g/><clipPath id="836a2d26bf"><path d="M 40.5 98.054688 L 1374.875 98.054688 L 1374.875 541.421875 L 40.5 541.421875 Z M 40.5 98.054688 " clip-rule="nonzero"/></clipPath><clipPath id="c22513c205"><path d="M 63 98.054688 L 1352.375 98.054688 C 1364.800781 98.054688 1374.875 108.125 1374.875 120.554688 L 1374.875 518.921875 C 1374.875 531.347656 1364.800781 541.421875 1352.375 541.421875 L 63 541.421875 C 50.574219 541.421875 40.5 531.347656 40.5 518.921875 L 40.5 120.554688 C 40.5 108.125 50.574219 98.054688 63 98.054688 Z M 63 98.054688 " clip-rule="nonzero"/></clipPath></defs><g clip-path="url(#836a2d26bf)"><g clip-path="url(#c22513c205)"><path fill="#1e1e1e" d="M 40.5 98.054688 L 1374.875 98.054688 L 1374.875 541.421875 L 40.5 541.421875 Z M 40.5 98.054688 " fill-opacity="1" fill-rule="nonzero"/></g></g><g fill="#ffffff" fill-opacity="1"><g transform="translate(81.000002, 412.2474)"><g><path d="M 53.65625 -53.296875 L 53.65625 -52.25 C 53.65625 -45 55.234375 -39.503906 58.390625 -35.765625 C 61.546875 -32.023438 64.644531 -29.222656 67.6875 -27.359375 C 72.363281 -24.546875 78.265625 -22.671875 85.390625 -21.734375 C 92.523438 -20.804688 98.429688 -20.34375 103.109375 -20.34375 C 114.328125 -20.34375 122.566406 -21.101562 127.828125 -22.625 C 133.085938 -24.144531 136.414062 -25.253906 137.8125 -25.953125 C 146.46875 -30.160156 150.796875 -37.40625 150.796875 -47.6875 C 150.796875 -52.832031 149.507812 -56.984375 146.9375 -60.140625 C 144.363281 -63.296875 141.09375 -65.8125 137.125 -67.6875 C 133.84375 -69.320312 129.804688 -70.664062 125.015625 -71.71875 C 120.222656 -72.769531 113.382812 -74.113281 104.5 -75.75 L 82.0625 -79.609375 C 71.070312 -81.472656 61.835938 -83.28125 54.359375 -85.03125 C 46.878906 -86.789062 40.332031 -89.304688 34.71875 -92.578125 C 28.40625 -96.554688 23.613281 -101.410156 20.34375 -107.140625 C 17.070312 -112.867188 15.4375 -119.820312 15.4375 -128 C 15.4375 -136.882812 17.363281 -145.179688 21.21875 -152.890625 C 25.070312 -160.609375 31.789062 -167.273438 41.375 -172.890625 C 51.195312 -178.734375 61.539062 -182.238281 72.40625 -183.40625 C 83.28125 -184.570312 93.046875 -185.15625 101.703125 -185.15625 C 117.367188 -185.15625 129.757812 -184.160156 138.875 -182.171875 C 147.988281 -180.191406 155.585938 -177.566406 161.671875 -174.296875 C 167.273438 -171.253906 171.710938 -167.921875 174.984375 -164.296875 C 178.265625 -160.671875 180.78125 -156.925781 182.53125 -153.0625 C 184.28125 -149.207031 185.445312 -145.410156 186.03125 -141.671875 C 186.625 -137.929688 186.921875 -134.425781 186.921875 -131.15625 L 145.53125 -131.15625 C 145.53125 -134.425781 144.828125 -138.046875 143.421875 -142.015625 C 142.023438 -145.992188 138.640625 -149.503906 133.265625 -152.546875 C 129.285156 -154.648438 124.195312 -156.171875 118 -157.109375 C 111.8125 -158.046875 106.144531 -158.515625 101 -158.515625 C 98.425781 -158.515625 94.039062 -158.160156 87.84375 -157.453125 C 81.644531 -156.753906 75.742188 -154.882812 70.140625 -151.84375 C 64.296875 -148.570312 60.671875 -144.945312 59.265625 -140.96875 C 57.859375 -137 57.15625 -133.726562 57.15625 -131.15625 C 57.15625 -128.582031 57.859375 -125.832031 59.265625 -122.90625 C 60.671875 -119.988281 63.476562 -117.363281 67.6875 -115.03125 C 68.613281 -114.5625 69.78125 -114.035156 71.1875 -113.453125 C 72.59375 -112.867188 74.875 -112.164062 78.03125 -111.34375 C 81.1875 -110.519531 85.453125 -109.582031 90.828125 -108.53125 C 96.203125 -107.476562 103.097656 -106.253906 111.515625 -104.859375 L 135.71875 -100.640625 C 138.757812 -100.179688 142.085938 -99.597656 145.703125 -98.890625 C 149.328125 -98.191406 153.007812 -97.316406 156.75 -96.265625 C 160.5 -95.210938 164.242188 -93.804688 167.984375 -92.046875 C 171.722656 -90.296875 175.226562 -88.253906 178.5 -85.921875 C 184.8125 -81.003906 189.078125 -75.625 191.296875 -69.78125 C 193.515625 -63.9375 194.625 -57.625 194.625 -50.84375 C 194.625 -44.070312 193.628906 -37.234375 191.640625 -30.328125 C 189.660156 -23.429688 185.628906 -16.945312 179.546875 -10.875 C 170.898438 -2.6875 160.144531 2.335938 147.28125 4.203125 C 134.425781 6.078125 120.285156 7.015625 104.859375 7.015625 C 94.335938 7.015625 85.21875 6.660156 77.5 5.953125 C 69.78125 5.253906 63.234375 4.320312 57.859375 3.15625 C 52.484375 1.988281 47.984375 0.703125 44.359375 -0.703125 C 40.734375 -2.109375 37.753906 -3.628906 35.421875 -5.265625 C 30.515625 -8.535156 26.539062 -12.097656 23.5 -15.953125 C 20.457031 -19.816406 18.117188 -23.851562 16.484375 -28.0625 C 14.847656 -32.269531 13.796875 -36.414062 13.328125 -40.5 C 12.859375 -44.59375 12.625 -48.507812 12.625 -52.25 L 12.625 -53.296875 Z M 53.65625 -53.296875 "/></g></g></g><g fill="#ffffff" fill-opacity="1"><g transform="translate(288.253167, 412.2474)"><g><path d="M 24.546875 -246.890625 L 66.625 -246.890625 L 66.625 -212.875 L 24.546875 -212.875 Z M 65.921875 -178.15625 L 65.921875 0 L 25.25 0 L 25.25 -178.15625 Z M 65.921875 -178.15625 "/></g></g></g><g fill="#ffffff" fill-opacity="1"><g transform="translate(379.430516, 412.2474)"><g><path d="M 64.53125 -178.15625 L 64.53125 -152.90625 L 65.578125 -152.90625 C 69.785156 -158.507812 74.109375 -163.125 78.546875 -166.75 C 82.992188 -170.375 87.085938 -173.125 90.828125 -175 C 99.015625 -179.4375 106.671875 -182.125 113.796875 -183.0625 C 120.929688 -184 127.882812 -184.46875 134.65625 -184.46875 C 140.269531 -184.46875 146.113281 -184.171875 152.1875 -183.578125 C 158.269531 -182.992188 164.347656 -181.882812 170.421875 -180.25 C 176.503906 -178.613281 182.523438 -176.21875 188.484375 -173.0625 C 194.453125 -169.90625 200.007812 -165.875 205.15625 -160.96875 C 210.757812 -155.351562 215.253906 -149.390625 218.640625 -143.078125 C 222.035156 -136.765625 224.550781 -130.453125 226.1875 -124.140625 C 227.820312 -117.828125 228.875 -111.804688 229.34375 -106.078125 C 229.8125 -100.347656 230.046875 -95.378906 230.046875 -91.171875 C 230.046875 -85.566406 229.753906 -79.609375 229.171875 -73.296875 C 228.585938 -66.984375 227.359375 -60.550781 225.484375 -54 C 223.617188 -47.457031 220.988281 -41.085938 217.59375 -34.890625 C 214.207031 -28.691406 209.707031 -22.789062 204.09375 -17.1875 C 198.71875 -11.8125 193.109375 -7.546875 187.265625 -4.390625 C 181.421875 -1.234375 175.515625 1.101562 169.546875 2.625 C 163.585938 4.144531 157.6875 5.140625 151.84375 5.609375 C 146 6.078125 140.390625 6.3125 135.015625 6.3125 C 128.234375 6.3125 121.101562 5.84375 113.625 4.90625 C 106.144531 3.96875 98.660156 1.628906 91.171875 -2.109375 C 84.628906 -5.378906 79.367188 -9 75.390625 -12.96875 C 71.421875 -16.945312 68.265625 -20.570312 65.921875 -23.84375 L 65.921875 64.875 L 25.25 64.875 L 25.25 -178.15625 Z M 126.25 -157.109375 C 118.0625 -157.109375 110.460938 -155.9375 103.453125 -153.59375 C 96.441406 -151.257812 89.894531 -147.050781 83.8125 -140.96875 C 78.4375 -135.59375 73.9375 -128.640625 70.3125 -120.109375 C 66.6875 -111.578125 64.875 -101.113281 64.875 -88.71875 C 64.875 -85.21875 65.046875 -81.363281 65.390625 -77.15625 C 65.742188 -72.945312 66.503906 -68.617188 67.671875 -64.171875 C 68.847656 -59.734375 70.660156 -55.234375 73.109375 -50.671875 C 75.566406 -46.117188 78.785156 -41.738281 82.765625 -37.53125 C 89.078125 -31.21875 95.851562 -26.890625 103.09375 -24.546875 C 110.34375 -22.210938 118.0625 -21.046875 126.25 -21.046875 C 133.726562 -21.046875 141.265625 -22.097656 148.859375 -24.203125 C 156.460938 -26.304688 163.65625 -30.976562 170.4375 -38.21875 C 177.6875 -45.9375 182.300781 -54.472656 184.28125 -63.828125 C 186.269531 -73.179688 187.265625 -81.832031 187.265625 -89.78125 C 187.265625 -103.101562 185.453125 -113.796875 181.828125 -121.859375 C 178.203125 -129.929688 174.40625 -136.070312 170.4375 -140.28125 C 166.457031 -144.25 160.898438 -148.046875 153.765625 -151.671875 C 146.640625 -155.296875 137.46875 -157.109375 126.25 -157.109375 Z M 126.25 -157.109375 "/></g></g></g><g fill="#ffffff" fill-opacity="1"><g transform="translate(624.557397, 412.2474)"><g><path d="M 128.359375 -150.796875 L 83.109375 -150.796875 L 83.109375 0 L 42.4375 0 L 42.4375 -150.796875 L 4.5625 -150.796875 L 4.5625 -178.15625 L 42.4375 -178.15625 L 42.4375 -197.78125 C 42.4375 -199.882812 42.550781 -202.398438 42.78125 -205.328125 C 43.019531 -208.253906 43.546875 -211.410156 44.359375 -214.796875 C 45.179688 -218.179688 46.410156 -221.566406 48.046875 -224.953125 C 49.679688 -228.347656 52.019531 -231.566406 55.0625 -234.609375 C 61.132812 -240.691406 68.144531 -244.488281 76.09375 -246 C 84.039062 -247.519531 91.640625 -248.28125 98.890625 -248.28125 C 104.035156 -248.28125 108.828125 -248.101562 113.265625 -247.75 C 117.710938 -247.40625 122.625 -246.648438 128 -245.484375 L 128 -218.828125 C 121.925781 -220.234375 116.082031 -220.9375 110.46875 -220.9375 C 107.894531 -220.9375 104.675781 -220.644531 100.8125 -220.0625 C 96.957031 -219.476562 93.515625 -217.78125 90.484375 -214.96875 C 88.609375 -213.332031 86.910156 -210.878906 85.390625 -207.609375 C 83.867188 -204.335938 83.109375 -199.660156 83.109375 -193.578125 L 83.109375 -178.15625 L 128.359375 -178.15625 Z M 128.359375 -150.796875 "/></g></g></g><g fill="#ffffff" fill-opacity="1"><g transform="translate(757.465998, 412.2474)"><g><path d="M 65.921875 -245.484375 L 65.921875 0 L 25.25 0 L 25.25 -245.484375 Z M 65.921875 -245.484375 "/></g></g></g><g fill="#ffffff" fill-opacity="1"><g transform="translate(848.643363, 412.2474)"><g><path d="M 221.640625 -54.359375 C 220.234375 -40.566406 215.613281 -29.050781 207.78125 -19.8125 C 199.945312 -10.582031 190.421875 -3.976562 179.203125 0 C 171.953125 2.570312 163.765625 4.320312 154.640625 5.25 C 145.523438 6.1875 134.660156 6.65625 122.046875 6.65625 C 115.023438 6.65625 107.832031 6.421875 100.46875 5.953125 C 93.101562 5.492188 85.796875 4.382812 78.546875 2.625 C 71.304688 0.875 64.351562 -1.632812 57.6875 -4.90625 C 51.019531 -8.175781 44.882812 -12.617188 39.28125 -18.234375 C 37.175781 -20.335938 34.71875 -23.257812 31.90625 -27 C 29.101562 -30.738281 26.472656 -35.414062 24.015625 -41.03125 C 21.566406 -46.644531 19.460938 -53.191406 17.703125 -60.671875 C 15.953125 -68.148438 15.078125 -76.800781 15.078125 -86.625 C 15.078125 -104.625 17.648438 -119.410156 22.796875 -130.984375 C 27.941406 -142.554688 33.90625 -151.734375 40.6875 -158.515625 C 46.289062 -164.117188 52.421875 -168.675781 59.078125 -172.1875 C 65.742188 -175.695312 72.46875 -178.382812 79.25 -180.25 C 86.03125 -182.125 92.925781 -183.351562 99.9375 -183.9375 C 106.957031 -184.519531 113.625 -184.8125 119.9375 -184.8125 C 126.25 -184.8125 133.023438 -184.519531 140.265625 -183.9375 C 147.515625 -183.351562 154.703125 -182.066406 161.828125 -180.078125 C 168.960938 -178.085938 175.921875 -175.335938 182.703125 -171.828125 C 189.484375 -168.328125 195.679688 -163.769531 201.296875 -158.15625 C 206.441406 -152.78125 210.53125 -147.109375 213.5625 -141.140625 C 216.601562 -135.179688 218.941406 -129.101562 220.578125 -122.90625 C 222.210938 -116.71875 223.265625 -110.46875 223.734375 -104.15625 C 224.203125 -97.84375 224.4375 -91.765625 224.4375 -85.921875 L 224.4375 -80.65625 L 57.859375 -80.65625 L 57.859375 -78.546875 C 57.859375 -72.703125 58.675781 -65.863281 60.3125 -58.03125 C 61.945312 -50.207031 65.921875 -42.90625 72.234375 -36.125 C 75.742188 -32.613281 79.484375 -29.804688 83.453125 -27.703125 C 87.429688 -25.597656 91.523438 -24.019531 95.734375 -22.96875 C 99.941406 -21.914062 104.265625 -21.269531 108.703125 -21.03125 C 113.148438 -20.800781 117.476562 -20.6875 121.6875 -20.6875 C 128.695312 -20.6875 135.648438 -21.035156 142.546875 -21.734375 C 149.453125 -22.441406 155.828125 -24.429688 161.671875 -27.703125 C 168.453125 -31.679688 173.007812 -36.125 175.34375 -41.03125 C 177.675781 -45.9375 179.078125 -50.378906 179.546875 -54.359375 Z M 181.65625 -104.5 C 181.425781 -112.6875 179.734375 -120.398438 176.578125 -127.640625 C 173.421875 -134.890625 169.503906 -140.503906 164.828125 -144.484375 C 161.316406 -147.523438 157.335938 -149.921875 152.890625 -151.671875 C 148.453125 -153.421875 144.128906 -154.703125 139.921875 -155.515625 C 135.710938 -156.335938 131.796875 -156.863281 128.171875 -157.09375 C 124.546875 -157.332031 121.800781 -157.453125 119.9375 -157.453125 C 114.320312 -157.453125 107.363281 -156.632812 99.0625 -155 C 90.769531 -153.363281 83.113281 -149.507812 76.09375 -143.4375 C 71.65625 -139.457031 67.679688 -134.191406 64.171875 -127.640625 C 60.671875 -121.097656 58.6875 -113.382812 58.21875 -104.5 Z M 181.65625 -104.5 "/></g></g></g><g fill="#d1f704" fill-opacity="0.451"><g transform="translate(1056.393738, 473.050061)"><g><path d="M 207.609375 -303.328125 L 267.625 -307.4375 L 163.71875 -160.3125 L 289.375 -19.828125 L 223.203125 -15.296875 L 132.375 -123.46875 L 55.90625 -3.828125 L -8.21875 0.5625 L 98.359375 -155.84375 L -23.40625 -287.5 L 39.890625 -291.828125 L 131.234375 -188.234375 Z M 207.609375 -303.328125 "/></g></g></g><g fill="#d1f704" fill-opacity="1"><g transform="translate(1054.452522, 471.357816)"><g><path d="M 207.609375 -303.328125 L 267.625 -307.4375 L 163.71875 -160.3125 L 289.375 -19.828125 L 223.203125 -15.296875 L 132.375 -123.46875 L 55.90625 -3.828125 L -8.21875 0.5625 L 98.359375 -155.84375 L -23.40625 -287.5 L 39.890625 -291.828125 L 131.234375 -188.234375 Z M 207.609375 -303.328125 "/></g></g></g></svg>