<svg xmlns="http://www.w3.org/2000/svg" xmlns:xlink="http://www.w3.org/1999/xlink" width="1900" zoomAndPan="magnify" viewBox="0 0 1425 809.999993" height="1080" preserveAspectRatio="xMidYMid meet" version="1.0"><defs><g/><clipPath id="1c88b2a2ab"><path d="M 427.933594 98.054688 L 1001.328125 98.054688 L 1001.328125 656.527344 L 427.933594 656.527344 Z M 427.933594 98.054688 " clip-rule="nonzero"/></clipPath><clipPath id="374314c57c"><path d="M 466.183594 98.054688 L 963.078125 98.054688 C 973.222656 98.054688 982.953125 102.082031 990.125 109.257812 C 997.300781 116.429688 1001.328125 126.160156 1001.328125 136.304688 L 1001.328125 618.277344 C 1001.328125 628.421875 997.300781 638.152344 990.125 645.324219 C 982.953125 652.496094 973.222656 656.527344 963.078125 656.527344 L 466.183594 656.527344 C 456.039062 656.527344 446.308594 652.496094 439.136719 645.324219 C 431.964844 638.152344 427.933594 628.421875 427.933594 618.277344 L 427.933594 136.304688 C 427.933594 126.160156 431.964844 116.429688 439.136719 109.257812 C 446.308594 102.082031 456.039062 98.054688 466.183594 98.054688 Z M 466.183594 98.054688 " clip-rule="nonzero"/></clipPath></defs><g clip-path="url(#1c88b2a2ab)"><g clip-path="url(#374314c57c)"><path fill="#000000" d="M 427.933594 98.054688 L 1001.328125 98.054688 L 1001.328125 656.527344 L 427.933594 656.527344 Z M 427.933594 98.054688 " fill-opacity="1" fill-rule="nonzero"/></g></g><g fill="#d1f704" fill-opacity="0.451"><g transform="translate(527.173929, 597.863689)"><g><path d="M 295.625 -431.90625 L 381.078125 -437.765625 L 233.140625 -228.28125 L 412.078125 -28.234375 L 317.84375 -21.78125 L 188.5 -175.8125 L 79.609375 -5.453125 L -11.703125 0.796875 L 140.0625 -221.890625 L -33.328125 -409.375 L 56.8125 -415.546875 L 186.875 -268.046875 Z M 295.625 -431.90625 "/></g></g></g><g fill="#d1f704" fill-opacity="1"><g transform="translate(524.409729, 595.453963)"><g><path d="M 295.625 -431.90625 L 381.078125 -437.765625 L 233.140625 -228.28125 L 412.078125 -28.234375 L 317.84375 -21.78125 L 188.5 -175.8125 L 79.609375 -5.453125 L -11.703125 0.796875 L 140.0625 -221.890625 L -33.328125 -409.375 L 56.8125 -415.546875 L 186.875 -268.046875 Z M 295.625 -431.90625 "/></g></g></g></svg>