<svg xmlns="http://www.w3.org/2000/svg" xmlns:xlink="http://www.w3.org/1999/xlink" width="1350" zoomAndPan="magnify" viewBox="0 0 1012.5 269.999989" height="360" preserveAspectRatio="xMidYMid meet" version="1.0"><defs><g/></defs><g fill="#1e1e1e" fill-opacity="1"><g transform="translate(-0.000000000000086441, 210.001141)"><g><path d="M 42.546875 -42.265625 L 42.546875 -41.421875 C 42.546875 -35.679688 43.796875 -31.328125 46.296875 -28.359375 C 48.796875 -25.390625 51.25 -23.164062 53.65625 -21.6875 C 57.363281 -19.457031 62.046875 -17.972656 67.703125 -17.234375 C 73.359375 -16.492188 78.039062 -16.125 81.75 -16.125 C 90.644531 -16.125 97.175781 -16.722656 101.34375 -17.921875 C 105.519531 -19.128906 108.160156 -20.015625 109.265625 -20.578125 C 116.128906 -23.910156 119.5625 -29.65625 119.5625 -37.8125 C 119.5625 -41.894531 118.539062 -45.1875 116.5 -47.6875 C 114.457031 -50.1875 111.863281 -52.175781 108.71875 -53.65625 C 106.125 -54.957031 102.925781 -56.023438 99.125 -56.859375 C 95.320312 -57.691406 89.898438 -58.757812 82.859375 -60.0625 L 65.0625 -63.109375 C 56.351562 -64.597656 49.03125 -66.035156 43.09375 -67.421875 C 37.164062 -68.816406 31.976562 -70.8125 27.53125 -73.40625 C 22.519531 -76.550781 18.71875 -80.394531 16.125 -84.9375 C 13.53125 -89.476562 12.234375 -94.992188 12.234375 -101.484375 C 12.234375 -108.523438 13.757812 -115.101562 16.8125 -121.21875 C 19.875 -127.34375 25.207031 -132.628906 32.8125 -137.078125 C 40.59375 -141.710938 48.789062 -144.492188 57.40625 -145.421875 C 66.03125 -146.347656 73.773438 -146.8125 80.640625 -146.8125 C 93.054688 -146.8125 102.878906 -146.019531 110.109375 -144.4375 C 117.335938 -142.863281 123.359375 -140.78125 128.171875 -138.1875 C 132.628906 -135.78125 136.15625 -133.140625 138.75 -130.265625 C 141.34375 -127.390625 143.332031 -124.421875 144.71875 -121.359375 C 146.113281 -118.304688 147.039062 -115.296875 147.5 -112.328125 C 147.96875 -109.359375 148.203125 -106.578125 148.203125 -103.984375 L 115.390625 -103.984375 C 115.390625 -106.578125 114.832031 -109.445312 113.71875 -112.59375 C 112.601562 -115.75 109.914062 -118.535156 105.65625 -120.953125 C 102.507812 -122.617188 98.476562 -123.820312 93.5625 -124.5625 C 88.644531 -125.300781 84.148438 -125.671875 80.078125 -125.671875 C 78.035156 -125.671875 74.554688 -125.394531 69.640625 -124.84375 C 64.734375 -124.289062 60.054688 -122.804688 55.609375 -120.390625 C 50.972656 -117.796875 48.097656 -114.921875 46.984375 -111.765625 C 45.878906 -108.617188 45.328125 -106.023438 45.328125 -103.984375 C 45.328125 -101.953125 45.878906 -99.773438 46.984375 -97.453125 C 48.097656 -95.140625 50.320312 -93.054688 53.65625 -91.203125 C 54.40625 -90.828125 55.332031 -90.40625 56.4375 -89.9375 C 57.550781 -89.476562 59.359375 -88.925781 61.859375 -88.28125 C 64.367188 -87.632812 67.753906 -86.890625 72.015625 -86.046875 C 76.273438 -85.210938 81.742188 -84.242188 88.421875 -83.140625 L 107.609375 -79.796875 C 110.015625 -79.429688 112.65625 -78.96875 115.53125 -78.40625 C 118.40625 -77.851562 121.320312 -77.160156 124.28125 -76.328125 C 127.25 -75.492188 130.21875 -74.378906 133.1875 -72.984375 C 136.15625 -71.597656 138.9375 -69.976562 141.53125 -68.125 C 146.53125 -64.226562 149.910156 -59.960938 151.671875 -55.328125 C 153.429688 -50.691406 154.3125 -45.6875 154.3125 -40.3125 C 154.3125 -34.9375 153.523438 -29.515625 151.953125 -24.046875 C 150.378906 -18.578125 147.179688 -13.4375 142.359375 -8.625 C 135.503906 -2.132812 126.976562 1.847656 116.78125 3.328125 C 106.582031 4.816406 95.367188 5.5625 83.140625 5.5625 C 74.796875 5.5625 67.5625 5.28125 61.4375 4.71875 C 55.320312 4.164062 50.132812 3.425781 45.875 2.5 C 41.613281 1.570312 38.046875 0.554688 35.171875 -0.546875 C 32.296875 -1.660156 29.929688 -2.867188 28.078125 -4.171875 C 24.191406 -6.765625 21.039062 -9.585938 18.625 -12.640625 C 16.21875 -15.703125 14.363281 -18.898438 13.0625 -22.234375 C 11.769531 -25.578125 10.9375 -28.867188 10.5625 -32.109375 C 10.195312 -35.359375 10.015625 -38.460938 10.015625 -41.421875 L 10.015625 -42.265625 Z M 42.546875 -42.265625 "/></g></g></g><g fill="#1e1e1e" fill-opacity="1"><g transform="translate(164.326532, 210.001141)"><g><path d="M 19.46875 -195.75 L 52.828125 -195.75 L 52.828125 -168.78125 L 19.46875 -168.78125 Z M 52.265625 -141.25 L 52.265625 0 L 20.015625 0 L 20.015625 -141.25 Z M 52.265625 -141.25 "/></g></g></g><g fill="#1e1e1e" fill-opacity="1"><g transform="translate(236.619071, 210.001141)"><g><path d="M 51.15625 -141.25 L 51.15625 -121.234375 L 52 -121.234375 C 55.332031 -125.679688 58.757812 -129.335938 62.28125 -132.203125 C 65.800781 -135.078125 69.046875 -137.257812 72.015625 -138.75 C 78.503906 -142.269531 84.570312 -144.398438 90.21875 -145.140625 C 95.875 -145.878906 101.390625 -146.25 106.765625 -146.25 C 111.210938 -146.25 115.847656 -146.015625 120.671875 -145.546875 C 125.492188 -145.085938 130.3125 -144.207031 135.125 -142.90625 C 139.945312 -141.613281 144.722656 -139.71875 149.453125 -137.21875 C 154.179688 -134.71875 158.582031 -131.519531 162.65625 -127.625 C 167.101562 -123.175781 170.671875 -118.445312 173.359375 -113.4375 C 176.046875 -108.4375 178.035156 -103.429688 179.328125 -98.421875 C 180.628906 -93.421875 181.46875 -88.648438 181.84375 -84.109375 C 182.21875 -79.566406 182.40625 -75.628906 182.40625 -72.296875 C 182.40625 -67.847656 182.171875 -63.117188 181.703125 -58.109375 C 181.242188 -53.109375 180.269531 -48.007812 178.78125 -42.8125 C 177.300781 -37.625 175.21875 -32.570312 172.53125 -27.65625 C 169.84375 -22.75 166.273438 -18.070312 161.828125 -13.625 C 157.554688 -9.363281 153.101562 -5.976562 148.46875 -3.46875 C 143.84375 -0.96875 139.164062 0.878906 134.4375 2.078125 C 129.707031 3.285156 125.023438 4.070312 120.390625 4.4375 C 115.753906 4.8125 111.304688 5 107.046875 5 C 101.671875 5 96.015625 4.628906 90.078125 3.890625 C 84.148438 3.148438 78.222656 1.296875 72.296875 -1.671875 C 67.097656 -4.265625 62.921875 -7.132812 59.765625 -10.28125 C 56.617188 -13.4375 54.117188 -16.3125 52.265625 -18.90625 L 52.265625 51.4375 L 20.015625 51.4375 L 20.015625 -141.25 Z M 100.09375 -124.5625 C 93.601562 -124.5625 87.578125 -123.632812 82.015625 -121.78125 C 76.460938 -119.925781 71.273438 -116.59375 66.453125 -111.78125 C 62.191406 -107.507812 58.625 -101.988281 55.75 -95.21875 C 52.875 -88.457031 51.4375 -80.164062 51.4375 -70.34375 C 51.4375 -67.5625 51.570312 -64.503906 51.84375 -61.171875 C 52.125 -57.835938 52.726562 -54.40625 53.65625 -50.875 C 54.582031 -47.351562 56.019531 -43.785156 57.96875 -40.171875 C 59.914062 -36.554688 62.46875 -33.082031 65.625 -29.75 C 70.625 -24.75 75.992188 -21.320312 81.734375 -19.46875 C 87.484375 -17.613281 93.601562 -16.6875 100.09375 -16.6875 C 106.03125 -16.6875 112.007812 -17.519531 118.03125 -19.1875 C 124.050781 -20.851562 129.75 -24.5625 135.125 -30.3125 C 140.875 -36.425781 144.535156 -43.1875 146.109375 -50.59375 C 147.691406 -58.007812 148.484375 -64.875 148.484375 -71.1875 C 148.484375 -81.75 147.046875 -90.226562 144.171875 -96.625 C 141.296875 -103.019531 138.28125 -107.882812 135.125 -111.21875 C 131.976562 -114.375 127.578125 -117.382812 121.921875 -120.25 C 116.265625 -123.125 108.988281 -124.5625 100.09375 -124.5625 Z M 100.09375 -124.5625 "/></g></g></g><g fill="#1e1e1e" fill-opacity="1"><g transform="translate(430.97485, 210.001141)"><g><path d="M 101.765625 -119.5625 L 65.890625 -119.5625 L 65.890625 0 L 33.640625 0 L 33.640625 -119.5625 L 3.609375 -119.5625 L 3.609375 -141.25 L 33.640625 -141.25 L 33.640625 -156.8125 C 33.640625 -158.488281 33.734375 -160.484375 33.921875 -162.796875 C 34.109375 -165.109375 34.523438 -167.609375 35.171875 -170.296875 C 35.816406 -172.984375 36.785156 -175.671875 38.078125 -178.359375 C 39.378906 -181.054688 41.238281 -183.609375 43.65625 -186.015625 C 48.46875 -190.835938 54.023438 -193.847656 60.328125 -195.046875 C 66.640625 -196.253906 72.664062 -196.859375 78.40625 -196.859375 C 82.488281 -196.859375 86.289062 -196.71875 89.8125 -196.4375 C 93.332031 -196.15625 97.222656 -195.550781 101.484375 -194.625 L 101.484375 -173.5 C 96.671875 -174.613281 92.035156 -175.171875 87.578125 -175.171875 C 85.546875 -175.171875 83 -174.9375 79.9375 -174.46875 C 76.875 -174.007812 74.140625 -172.664062 71.734375 -170.4375 C 70.253906 -169.144531 68.910156 -167.203125 67.703125 -164.609375 C 66.492188 -162.015625 65.890625 -158.304688 65.890625 -153.484375 L 65.890625 -141.25 L 101.765625 -141.25 Z M 101.765625 -119.5625 "/></g></g></g><g fill="#1e1e1e" fill-opacity="1"><g transform="translate(536.355192, 210.001141)"><g><path d="M 52.265625 -194.625 L 52.265625 0 L 20.015625 0 L 20.015625 -194.625 Z M 52.265625 -194.625 "/></g></g></g><g fill="#1e1e1e" fill-opacity="1"><g transform="translate(608.647744, 210.001141)"><g><path d="M 175.71875 -43.09375 C 174.613281 -32.15625 170.953125 -23.023438 164.734375 -15.703125 C 158.523438 -8.390625 150.972656 -3.15625 142.078125 0 C 136.335938 2.039062 129.851562 3.429688 122.625 4.171875 C 115.394531 4.910156 106.773438 5.28125 96.765625 5.28125 C 91.203125 5.28125 85.5 5.09375 79.65625 4.71875 C 73.820312 4.351562 68.03125 3.472656 62.28125 2.078125 C 56.53125 0.691406 51.015625 -1.296875 45.734375 -3.890625 C 40.453125 -6.484375 35.585938 -10.003906 31.140625 -14.453125 C 29.472656 -16.117188 27.523438 -18.4375 25.296875 -21.40625 C 23.078125 -24.375 20.992188 -28.082031 19.046875 -32.53125 C 17.097656 -36.976562 15.425781 -42.164062 14.03125 -48.09375 C 12.644531 -54.03125 11.953125 -60.890625 11.953125 -68.671875 C 11.953125 -82.953125 13.988281 -94.675781 18.0625 -103.84375 C 22.144531 -113.019531 26.875 -120.296875 32.25 -125.671875 C 36.695312 -130.117188 41.5625 -133.734375 46.84375 -136.515625 C 52.132812 -139.296875 57.46875 -141.425781 62.84375 -142.90625 C 68.21875 -144.394531 73.679688 -145.367188 79.234375 -145.828125 C 84.796875 -146.296875 90.082031 -146.53125 95.09375 -146.53125 C 100.09375 -146.53125 105.46875 -146.296875 111.21875 -145.828125 C 116.96875 -145.367188 122.664062 -144.347656 128.3125 -142.765625 C 133.96875 -141.191406 139.484375 -139.015625 144.859375 -136.234375 C 150.234375 -133.460938 155.144531 -129.851562 159.59375 -125.40625 C 163.675781 -121.132812 166.921875 -116.632812 169.328125 -111.90625 C 171.734375 -107.1875 173.585938 -102.367188 174.890625 -97.453125 C 176.191406 -92.546875 177.023438 -87.585938 177.390625 -82.578125 C 177.765625 -77.578125 177.953125 -72.757812 177.953125 -68.125 L 177.953125 -63.953125 L 45.875 -63.953125 L 45.875 -62.28125 C 45.875 -57.644531 46.519531 -52.222656 47.8125 -46.015625 C 49.113281 -39.804688 52.269531 -34.015625 57.28125 -28.640625 C 60.0625 -25.859375 63.023438 -23.632812 66.171875 -21.96875 C 69.328125 -20.300781 72.570312 -19.046875 75.90625 -18.203125 C 79.238281 -17.367188 82.664062 -16.859375 86.1875 -16.671875 C 89.71875 -16.492188 93.148438 -16.40625 96.484375 -16.40625 C 102.046875 -16.40625 107.5625 -16.679688 113.03125 -17.234375 C 118.5 -17.796875 123.546875 -19.375 128.171875 -21.96875 C 133.554688 -25.113281 137.171875 -28.632812 139.015625 -32.53125 C 140.867188 -36.425781 141.984375 -39.945312 142.359375 -43.09375 Z M 144.03125 -82.859375 C 143.84375 -89.347656 142.5 -95.460938 140 -101.203125 C 137.5 -106.953125 134.394531 -111.40625 130.6875 -114.5625 C 127.90625 -116.96875 124.753906 -118.863281 121.234375 -120.25 C 117.710938 -121.644531 114.28125 -122.664062 110.9375 -123.3125 C 107.601562 -123.957031 104.5 -124.375 101.625 -124.5625 C 98.75 -124.75 96.570312 -124.84375 95.09375 -124.84375 C 90.644531 -124.84375 85.128906 -124.191406 78.546875 -122.890625 C 71.960938 -121.597656 65.894531 -118.539062 60.34375 -113.71875 C 56.8125 -110.570312 53.65625 -106.398438 50.875 -101.203125 C 48.101562 -96.015625 46.53125 -89.898438 46.15625 -82.859375 Z M 144.03125 -82.859375 "/></g></g></g><g fill="#1e1e1e" fill-opacity="0.451"><g transform="translate(773.368251, 258.210055)"><g><path d="M 164.609375 -240.5 L 212.203125 -243.765625 L 129.796875 -127.09375 L 229.4375 -15.71875 L 176.96875 -12.125 L 104.953125 -97.890625 L 44.3125 -3.03125 L -6.515625 0.453125 L 77.984375 -123.546875 L -18.5625 -227.953125 L 31.640625 -231.390625 L 104.0625 -149.25 Z M 164.609375 -240.5 "/></g></g></g><g fill="#d1f704" fill-opacity="1"><g transform="translate(771.829171, 256.868304)"><g><path d="M 164.609375 -240.5 L 212.203125 -243.765625 L 129.796875 -127.09375 L 229.4375 -15.71875 L 176.96875 -12.125 L 104.953125 -97.890625 L 44.3125 -3.03125 L -6.515625 0.453125 L 77.984375 -123.546875 L -18.5625 -227.953125 L 31.640625 -231.390625 L 104.0625 -149.25 Z M 164.609375 -240.5 "/></g></g></g></svg>