<svg xmlns="http://www.w3.org/2000/svg" xmlns:xlink="http://www.w3.org/1999/xlink" width="1920" zoomAndPan="magnify" viewBox="0 0 1440 749.999995" height="1000" preserveAspectRatio="xMidYMid meet" version="1.0"><defs><g/></defs><g fill="#5846f9" fill-opacity="1"><g transform="translate(289.350318, 590.420292)"><g><path d="M 43.515625 -248.046875 L 43.515625 -340.40625 L 129.109375 -340.40625 L 129.109375 -248.046875 L 181.328125 -248.046875 L 181.328125 -182.78125 L 129.109375 -182.78125 L 129.109375 -103.953125 C 129.109375 -81.066406 135.550781 -69.625 148.4375 -69.625 C 151.664062 -69.625 155.050781 -70.269531 158.59375 -71.5625 C 162.144531 -72.851562 164.882812 -74.144531 166.8125 -75.4375 L 169.71875 -77.359375 L 191 -8.21875 C 172.625 2.09375 151.671875 7.25 128.140625 7.25 C 112.015625 7.25 98.148438 4.429688 86.546875 -1.203125 C 74.941406 -6.847656 66.15625 -14.425781 60.1875 -23.9375 C 54.226562 -33.445312 49.957031 -43.4375 47.375 -53.90625 C 44.800781 -64.382812 43.515625 -75.585938 43.515625 -87.515625 L 43.515625 -182.78125 L 7.734375 -182.78125 L 7.734375 -248.046875 Z M 43.515625 -248.046875 "/></g></g></g><g fill="#5846f9" fill-opacity="1"><g transform="translate(439.199682, 590.420292)"><g><path d="M 279.96875 -112.171875 L 100.09375 -112.171875 C 100.09375 -94.765625 105.734375 -81.867188 117.015625 -73.484375 C 128.296875 -65.109375 140.546875 -60.921875 153.765625 -60.921875 C 167.628906 -60.921875 178.585938 -62.773438 186.640625 -66.484375 C 194.703125 -70.191406 203.890625 -77.523438 214.203125 -88.484375 L 276.09375 -57.546875 C 250.300781 -14.347656 207.429688 7.25 147.484375 7.25 C 110.085938 7.25 78.007812 -5.5625 51.25 -31.1875 C 24.5 -56.8125 11.125 -87.675781 11.125 -123.78125 C 11.125 -159.882812 24.5 -190.828125 51.25 -216.609375 C 78.007812 -242.398438 110.085938 -255.296875 147.484375 -255.296875 C 186.804688 -255.296875 218.796875 -243.929688 243.453125 -221.203125 C 268.117188 -198.484375 280.453125 -166.007812 280.453125 -123.78125 C 280.453125 -117.976562 280.289062 -114.109375 279.96875 -112.171875 Z M 102.515625 -159.5625 L 196.796875 -159.5625 C 194.859375 -172.457031 189.78125 -182.367188 181.5625 -189.296875 C 173.34375 -196.234375 162.785156 -199.703125 149.890625 -199.703125 C 135.710938 -199.703125 124.429688 -195.992188 116.046875 -188.578125 C 107.660156 -181.160156 103.148438 -171.488281 102.515625 -159.5625 Z M 102.515625 -159.5625 "/></g></g></g><g fill="#5846f9" fill-opacity="1"><g transform="translate(689.601234, 590.420292)"><g><path d="M 29.015625 0 L 29.015625 -415.84375 L 114.59375 -415.84375 L 114.59375 0 Z M 29.015625 0 "/></g></g></g><g fill="#5846f9" fill-opacity="1"><g transform="translate(792.075081, 590.420292)"><g><path d="M 175.515625 -329.28125 C 162.628906 -329.28125 150.300781 -322.910156 138.53125 -310.171875 C 126.757812 -297.441406 118.132812 -284.796875 112.65625 -272.234375 L 104.4375 -253.375 L 28.53125 -290.125 C 29.5 -293.34375 31.109375 -297.53125 33.359375 -302.6875 C 35.617188 -307.84375 40.9375 -317.109375 49.3125 -330.484375 C 57.695312 -343.867188 66.96875 -355.632812 77.125 -365.78125 C 87.28125 -375.9375 101.140625 -385.207031 118.703125 -393.59375 C 136.273438 -401.976562 155.210938 -406.171875 175.515625 -406.171875 C 201.628906 -406.171875 224.4375 -402.863281 243.9375 -396.25 C 263.4375 -389.644531 278.503906 -381.425781 289.140625 -371.59375 C 299.785156 -361.757812 308.410156 -350.15625 315.015625 -336.78125 C 321.628906 -323.40625 325.820312 -311.234375 327.59375 -300.265625 C 329.363281 -289.304688 330.25 -277.863281 330.25 -265.9375 C 330.25 -248.53125 325.410156 -230.238281 315.734375 -211.0625 C 306.066406 -191.882812 294.382812 -174.800781 280.6875 -159.8125 C 266.988281 -144.820312 253.207031 -131.117188 239.34375 -118.703125 C 225.488281 -106.296875 213.722656 -96.707031 204.046875 -89.9375 L 189.546875 -79.78125 L 337.5 -79.78125 L 337.5 0 L 26.59375 0 L 26.59375 -22.71875 C 32.070312 -27.238281 39.484375 -33.445312 48.828125 -41.34375 C 58.179688 -49.238281 74.625 -64.304688 98.15625 -86.546875 C 121.6875 -108.796875 142.476562 -129.671875 160.53125 -149.171875 C 178.582031 -168.671875 195.019531 -189.539062 209.84375 -211.78125 C 224.675781 -234.03125 232.09375 -252.082031 232.09375 -265.9375 C 232.09375 -271.414062 231.523438 -276.894531 230.390625 -282.375 C 229.265625 -287.863281 227.09375 -294.554688 223.875 -302.453125 C 220.65625 -310.347656 214.851562 -316.789062 206.46875 -321.78125 C 198.082031 -326.78125 187.765625 -329.28125 175.515625 -329.28125 Z M 175.515625 -329.28125 "/></g></g></g><path stroke-linecap="butt" transform="matrix(6.770183, 0, 0, 6.770183, -1.717684, 682.298123)" fill="none" stroke-linejoin="miter" d="M -0.000157406 4.999911 L 84.433145 4.999911 " stroke="#5846f9" stroke-width="10" stroke-opacity="1" stroke-miterlimit="4"/><path stroke-linecap="butt" transform="matrix(0, 6.770183, -6.770183, 0, 65.949451, 171.432024)" fill="none" stroke-linejoin="miter" d="M 0.000231915 5.00013 L 82.463153 5.00013 " stroke="#5846f9" stroke-width="10" stroke-opacity="1" stroke-miterlimit="4"/><path stroke-linecap="butt" transform="matrix(-6.770183, 0, 0, -6.770183, 1438.796071, 69.373728)" fill="none" stroke-linejoin="miter" d="M -0.00011876 4.999908 L 84.433184 4.999908 " stroke="#5846f9" stroke-width="10" stroke-opacity="1" stroke-miterlimit="4"/><path stroke-linecap="butt" transform="matrix(0, -6.770183, 6.770183, 0, 1371.135634, 580.239904)" fill="none" stroke-linejoin="miter" d="M 0.00023965 5.000256 L 82.463161 5.000256 " stroke="#5846f9" stroke-width="10" stroke-opacity="1" stroke-miterlimit="4"/></svg>